<svg width="492" height="250" viewBox="0 0 492 250" fill="none" xmlns="http://www.w3.org/2000/svg">
<path d="M40 42C40 40.8954 40.8954 40 42 40H450C451.105 40 452 40.8954 452 42V208C452 209.105 451.105 210 450 210H42C40.8954 210 40 209.105 40 208V42Z" fill="white"/>
<path d="M42 41H450V39H42V41ZM451 42V208H453V42H451ZM450 209H42V211H450V209ZM41 208V42H39V208H41ZM42 209C41.4477 209 41 208.552 41 208H39C39 209.657 40.3432 211 42 211V209ZM451 208C451 208.552 450.552 209 450 209V211C451.657 211 453 209.657 453 208H451ZM450 41C450.552 41 451 41.4477 451 42H453C453 40.3431 451.657 39 450 39V41ZM42 39C40.3431 39 39 40.3431 39 42H41C41 41.4477 41.4477 41 42 41V39Z" fill="black" fill-opacity="0.1"/>
<path d="M97.7 135.5V125.9H102.4C105.8 125.9 108.367 124.767 110.1 122.5C111.9 120.233 112.8 116.9 112.8 112.5C112.8 108.3 111.933 105.2 110.2 103.2C108.533 101.2 105.933 100.2 102.4 100.2H97.7V90.6H102.4C113.067 90.6 121.033 92.4333 126.3 96.1C131.567 99.7 134.2 105.167 134.2 112.5C134.2 119.967 131.5 125.667 126.1 129.6C120.7 133.533 112.8 135.5 102.4 135.5H97.7ZM75.9 166V90.6H97.7V166H75.9ZM124.1 166C122.9 166 121.933 165.9 121.2 165.7C120.467 165.5 119.767 165 119.1 164.2C118.433 163.333 117.5 161.967 116.3 160.1L103.6 139.7C102.867 138.433 102.2 137.533 101.6 137C101.067 136.4 100.533 136 100 135.8C99.5333 135.6 99.0333 135.5 98.5 135.5L106.6 131.2C110 131.4 112.867 131.967 115.2 132.9C117.533 133.833 119.567 135.033 121.3 136.5C123.033 137.967 124.667 139.7 126.2 141.7L136.9 155.3C137.833 156.433 138.7 157.333 139.5 158C140.367 158.6 141.3 159.067 142.3 159.4L145.7 160.8C146.3 161.067 146.6 161.533 146.6 162.2V165C146.6 165.667 146.267 166 145.6 166H124.1ZM67.2 166C66.5333 166 66.2 165.667 66.2 165V162.2C66.2 161.6 66.5 161.167 67.1 160.9L73 158.7C74.3333 158.167 75.1333 157.667 75.4 157.2C75.7333 156.733 75.9 155.967 75.9 154.9V145.9H97.7V154.5C97.7 155.967 97.8667 156.933 98.2 157.4C98.6 157.8 99.2667 158.167 100.2 158.5L106.7 160.9C107.3 161.167 107.6 161.6 107.6 162.2V165C107.6 165.667 107.267 166 106.6 166H67.2ZM66.2 91.6C66.2 90.9333 66.5333 90.6 67.2 90.6H97.7V110.7H75.9V101.7C75.9 100.633 75.7333 99.8667 75.4 99.4C75.1333 98.8667 74.3333 98.3667 73 97.9L67.1 95.7C66.5 95.4333 66.2 95 66.2 94.4V91.6ZM152.389 166V134.4H163.389V166H152.389ZM146.789 166C146.122 166 145.789 165.667 145.789 165V163.8C145.789 163.133 146.122 162.733 146.789 162.6L150.189 161.8C151.189 161.533 151.789 161.267 151.989 161C152.256 160.667 152.389 160 152.389 159V148H163.389V159.1C163.389 160.033 163.489 160.667 163.689 161C163.956 161.267 164.589 161.467 165.589 161.6L171.189 162.7C171.789 162.833 172.089 163.2 172.089 163.8V165.1C172.089 165.7 171.756 166 171.089 166H146.789ZM152.389 134.4V119.7L154.189 123.1L145.889 121.6C145.222 121.533 144.889 121.167 144.889 120.5V119C144.889 118.4 145.222 118.067 145.889 118L160.689 115.8C161.689 115.667 162.389 115.733 162.789 116C163.189 116.2 163.389 116.733 163.389 117.6V134.4H152.389ZM157.989 107.6C156.056 107.6 154.422 107.033 153.089 105.9C151.756 104.7 151.089 103.2 151.089 101.4C151.089 99.6 151.756 98.1333 153.089 97C154.422 95.8 156.056 95.2 157.989 95.2C159.989 95.2 161.622 95.8 162.889 97C164.222 98.1333 164.889 99.6 164.889 101.4C164.889 103.2 164.222 104.7 162.889 105.9C161.622 107.033 159.989 107.6 157.989 107.6ZM191.276 166.8C186.476 166.8 182.909 165.5 180.576 162.9C178.309 160.3 177.176 156.333 177.176 151V118.3L177.476 116.7V107C177.476 106.4 177.809 106 178.476 105.8C179.276 105.6 180.176 105.433 181.176 105.3C182.242 105.167 183.309 105.033 184.376 104.9C185.442 104.767 186.409 104.7 187.276 104.7C187.876 104.7 188.176 105.033 188.176 105.7V150.8C188.176 154 188.909 156.3 190.376 157.7C191.909 159.033 194.376 159.7 197.776 159.7C198.776 159.7 199.809 159.667 200.876 159.6C202.009 159.467 203.176 159.233 204.376 158.9C204.976 158.767 205.342 159.033 205.476 159.7L205.576 161.4C205.642 162 205.409 162.533 204.876 163C203.809 163.733 202.476 164.4 200.876 165C199.342 165.533 197.742 165.967 196.076 166.3C194.409 166.633 192.809 166.8 191.276 166.8ZM171.076 122.1C170.476 122.1 170.209 121.767 170.276 121.1L170.876 118.5C171.009 117.9 171.409 117.567 172.076 117.5L177.476 116.7H198.676L205.276 116.3C205.876 116.3 206.176 116.633 206.176 117.3C206.242 117.9 206.242 118.533 206.176 119.2C206.176 119.867 206.076 120.533 205.876 121.2C205.676 121.8 205.276 122.1 204.676 122.1H171.076ZM248.715 149.8V162.8L246.815 159.5L255.215 161.7C255.815 161.967 256.115 162.4 256.115 163V164.4C256.115 165 255.782 165.333 255.115 165.4L239.915 166.9C239.382 166.967 238.948 166.867 238.615 166.6C238.282 166.4 238.115 166.033 238.115 165.5V153.9L237.715 152.9V149.8H248.715ZM217.215 167C212.215 167 208.515 165.633 206.115 162.9C203.715 160.167 202.515 156 202.515 150.4V134.5H213.615V149C213.615 155.2 216.548 158.3 222.415 158.3C228.215 158.3 233.782 155.767 239.115 150.7L240.115 153.4C238.582 155.933 236.648 158.233 234.315 160.3C231.982 162.367 229.348 164 226.415 165.2C223.482 166.4 220.415 167 217.215 167ZM237.715 149.8V134.5H248.715V149.8H237.715ZM202.515 134.5V119.8L204.315 123.2L196.015 121.7C195.415 121.633 195.115 121.267 195.115 120.6V119.1C195.115 118.5 195.448 118.167 196.115 118.1L210.815 115.9C211.815 115.7 212.515 115.733 212.915 116C213.382 116.267 213.615 116.833 213.615 117.7V134.5H202.515ZM237.715 134.5V119.8L239.515 123.2L231.215 121.7C230.548 121.633 230.215 121.267 230.215 120.6V119.1C230.215 118.5 230.548 118.167 231.215 118.1L246.015 115.9C247.015 115.7 247.715 115.733 248.115 116C248.515 116.267 248.715 116.833 248.715 117.7V134.5H237.715ZM263.819 166.9C259.819 166.9 256.552 165.733 254.019 163.4C251.485 161 250.219 157.967 250.219 154.3C250.219 150.1 251.719 146.867 254.719 144.6C257.719 142.267 262.385 140.733 268.719 140L282.119 138.5L281.919 143.3L270.719 144.8C267.119 145.333 264.485 146.233 262.819 147.5C261.219 148.7 260.419 150.433 260.419 152.7C260.419 154.7 261.085 156.3 262.419 157.5C263.819 158.7 265.652 159.3 267.919 159.3C270.252 159.3 272.319 158.933 274.119 158.2C275.919 157.467 277.419 156.633 278.619 155.7C279.819 154.767 280.652 153.967 281.119 153.3L282.319 154.6C282.119 155.733 281.519 157 280.519 158.4C279.519 159.8 278.185 161.167 276.519 162.5C274.852 163.767 272.952 164.833 270.819 165.7C268.685 166.5 266.352 166.9 263.819 166.9ZM280.819 133.5C280.819 129.833 279.919 127.033 278.119 125.1C276.319 123.1 273.752 122.1 270.419 122.1C268.752 122.1 267.252 122.3 265.919 122.7C264.652 123.033 263.552 123.733 262.619 124.8C261.685 125.867 260.952 127.467 260.419 129.6L259.719 133C259.519 133.6 259.119 133.9 258.519 133.9H256.919C256.252 133.9 255.885 133.567 255.819 132.9C255.352 130.9 254.919 128.967 254.519 127.1C254.119 125.167 253.752 123.267 253.419 121.4C253.285 120.867 253.519 120.433 254.119 120.1C255.985 119.233 258.452 118.3 261.519 117.3C264.652 116.233 268.119 115.7 271.919 115.7C278.119 115.7 282.985 117.267 286.519 120.4C290.052 123.467 291.819 127.7 291.819 133.1V149.8H280.819V133.5ZM291.819 149.8V162.8L289.919 159.5L298.319 161.7C298.919 161.967 299.219 162.4 299.219 163V164.4C299.219 165 298.885 165.333 298.219 165.4L292.919 166C289.652 166.333 287.185 166.467 285.519 166.4C283.852 166.333 282.685 165.867 282.019 165C281.419 164.133 281.119 162.8 281.119 161V156L280.819 155.2V149.8H291.819ZM297.309 166V109.2H308.409V166H297.309ZM291.709 166C291.109 166 290.809 165.667 290.809 165V163.8C290.809 163.133 291.142 162.733 291.809 162.6L295.209 161.8C296.209 161.533 296.809 161.267 297.009 161C297.209 160.667 297.309 160 297.309 159V148H308.409V159.1C308.409 160.033 308.509 160.667 308.709 161C308.975 161.267 309.575 161.467 310.509 161.6L316.109 162.7C316.709 162.833 317.009 163.2 317.009 163.8V165.1C317.009 165.7 316.675 166 316.009 166H291.709ZM297.309 109.3V94.6L299.109 98L290.809 96.5C290.209 96.3667 289.909 95.9667 289.909 95.3V93.9C289.909 93.2333 290.242 92.8667 290.909 92.8L305.609 90.6C306.609 90.4667 307.309 90.5333 307.709 90.8C308.175 91 308.409 91.5667 308.409 92.5V109.3H297.309Z" fill="#04596C" fill-opacity="0.8"/>
<path d="M349.523 161.596L310.997 113.482C308.334 110.157 308.334 104.78 310.997 101.489L317.399 93.4941C320.062 90.1686 324.368 90.1686 327.002 93.4941L354.31 127.598L381.618 93.4941C384.281 90.1686 388.586 90.1686 391.221 93.4941L397.623 101.489C400.286 104.815 400.286 110.192 397.623 113.482L359.097 161.596C356.491 164.921 352.185 164.921 349.523 161.596Z" fill="#04596C"/>
<rect x="40" y="4" width="76.9219" height="30" rx="3" fill="white"/>
<rect x="40.5" y="4.5" width="75.9219" height="29" rx="2.5" stroke="black" stroke-opacity="0.14902"/>
<path d="M46.9688 22V14H47.9375V21.1406H51.6563V22H46.9688ZM55.4688 22.125C54.9271 22.125 54.4518 21.9961 54.043 21.7383C53.6367 21.4805 53.319 21.1198 53.0898 20.6562C52.8633 20.1927 52.75 19.651 52.75 19.0312C52.75 18.4062 52.8633 17.8607 53.0898 17.3945C53.319 16.9284 53.6367 16.5664 54.043 16.3086C54.4518 16.0508 54.9271 15.9219 55.4688 15.9219C56.0104 15.9219 56.4844 16.0508 56.8906 16.3086C57.2995 16.5664 57.6172 16.9284 57.8438 17.3945C58.0729 17.8607 58.1875 18.4062 58.1875 19.0312C58.1875 19.651 58.0729 20.1927 57.8438 20.6562C57.6172 21.1198 57.2995 21.4805 56.8906 21.7383C56.4844 21.9961 56.0104 22.125 55.4688 22.125ZM55.4688 21.2969C55.8802 21.2969 56.2187 21.1914 56.4844 20.9805C56.75 20.7695 56.9466 20.4922 57.0742 20.1484C57.2018 19.8047 57.2656 19.4323 57.2656 19.0312C57.2656 18.6302 57.2018 18.2565 57.0742 17.9102C56.9466 17.5638 56.75 17.2839 56.4844 17.0703C56.2187 16.8568 55.8802 16.75 55.4688 16.75C55.0573 16.75 54.7188 16.8568 54.4531 17.0703C54.1875 17.2839 53.9909 17.5638 53.8633 17.9102C53.7357 18.2565 53.6719 18.6302 53.6719 19.0312C53.6719 19.4323 53.7357 19.8047 53.8633 20.1484C53.9909 20.4922 54.1875 20.7695 54.4531 20.9805C54.7188 21.1914 55.0573 21.2969 55.4688 21.2969ZM62.0166 24.375C61.5713 24.375 61.1885 24.3177 60.8682 24.2031C60.5479 24.0911 60.2809 23.9427 60.0674 23.7578C59.8564 23.5755 59.6885 23.3802 59.5635 23.1719L60.2979 22.6563C60.3812 22.7656 60.4867 22.8906 60.6143 23.0312C60.7419 23.1745 60.9163 23.2982 61.1377 23.4023C61.3617 23.5091 61.6546 23.5625 62.0166 23.5625C62.501 23.5625 62.9007 23.4453 63.2158 23.2109C63.5309 22.9766 63.6885 22.6094 63.6885 22.1094V20.8906H63.6104C63.5426 21 63.4463 21.1354 63.3213 21.2969C63.1989 21.4557 63.0218 21.5977 62.79 21.7227C62.5609 21.8451 62.251 21.9062 61.8604 21.9062C61.376 21.9062 60.9411 21.7917 60.5557 21.5625C60.1729 21.3333 59.8695 21 59.6455 20.5625C59.4242 20.125 59.3135 19.5937 59.3135 18.9687C59.3135 18.3542 59.4215 17.819 59.6377 17.3633C59.8538 16.9049 60.1546 16.5508 60.54 16.3008C60.9255 16.0482 61.3708 15.9219 61.876 15.9219C62.2666 15.9219 62.5765 15.987 62.8057 16.1172C63.0374 16.2448 63.2145 16.3906 63.3369 16.5547C63.4619 16.7161 63.5583 16.849 63.626 16.9531H63.7197V16H64.6104V22.1719C64.6104 22.6875 64.4932 23.1068 64.2588 23.4297C64.027 23.7552 63.7145 23.9935 63.3213 24.1445C62.9307 24.2982 62.4958 24.375 62.0166 24.375ZM61.9854 21.0781C62.3551 21.0781 62.6676 20.9935 62.9229 20.8242C63.1781 20.6549 63.3721 20.4115 63.5049 20.0938C63.6377 19.776 63.7041 19.3958 63.7041 18.9531C63.7041 18.5208 63.639 18.1393 63.5088 17.8086C63.3786 17.4779 63.1859 17.2187 62.9307 17.0312C62.6755 16.8437 62.3604 16.75 61.9854 16.75C61.5947 16.75 61.2692 16.849 61.0088 17.0469C60.751 17.2448 60.557 17.5104 60.4268 17.8438C60.2992 18.1771 60.2354 18.5469 60.2354 18.9531C60.2354 19.3698 60.3005 19.7383 60.4307 20.0586C60.5635 20.3763 60.7588 20.6263 61.0166 20.8086C61.277 20.9883 61.5999 21.0781 61.9854 21.0781ZM68.7354 22.125C68.1937 22.125 67.7184 21.9961 67.3096 21.7383C66.9033 21.4805 66.5856 21.1198 66.3564 20.6562C66.1299 20.1927 66.0166 19.651 66.0166 19.0312C66.0166 18.4062 66.1299 17.8607 66.3564 17.3945C66.5856 16.9284 66.9033 16.5664 67.3096 16.3086C67.7184 16.0508 68.1937 15.9219 68.7354 15.9219C69.277 15.9219 69.751 16.0508 70.1572 16.3086C70.5661 16.5664 70.8838 16.9284 71.1104 17.3945C71.3395 17.8607 71.4541 18.4062 71.4541 19.0312C71.4541 19.651 71.3395 20.1927 71.1104 20.6562C70.8838 21.1198 70.5661 21.4805 70.1572 21.7383C69.751 21.9961 69.277 22.125 68.7354 22.125ZM68.7354 21.2969C69.1468 21.2969 69.4854 21.1914 69.751 20.9805C70.0166 20.7695 70.2132 20.4922 70.3408 20.1484C70.4684 19.8047 70.5322 19.4323 70.5322 19.0312C70.5322 18.6302 70.4684 18.2565 70.3408 17.9102C70.2132 17.5638 70.0166 17.2839 69.751 17.0703C69.4854 16.8568 69.1468 16.75 68.7354 16.75C68.3239 16.75 67.9854 16.8568 67.7197 17.0703C67.4541 17.2839 67.2575 17.5638 67.1299 17.9102C67.0023 18.2565 66.9385 18.6302 66.9385 19.0312C66.9385 19.4323 67.0023 19.8047 67.1299 20.1484C67.2575 20.4922 67.4541 20.7695 67.7197 20.9805C67.9854 21.1914 68.3239 21.2969 68.7354 21.2969ZM78.5488 22H76.0801V14H78.6582C79.4342 14 80.0983 14.1602 80.6504 14.4805C81.2025 14.7982 81.6257 15.2552 81.9199 15.8516C82.2142 16.4453 82.3613 17.1562 82.3613 17.9844C82.3613 18.8177 82.2129 19.5352 81.916 20.1367C81.6191 20.7357 81.1868 21.1966 80.6191 21.5195C80.0514 21.8398 79.3613 22 78.5488 22ZM77.0488 21.1406H78.4863C79.1478 21.1406 79.696 21.013 80.1309 20.7578C80.5658 20.5026 80.89 20.1393 81.1035 19.668C81.3171 19.1966 81.4238 18.6354 81.4238 17.9844C81.4238 17.3385 81.3184 16.7826 81.1074 16.3164C80.8965 15.8477 80.5814 15.4883 80.1621 15.2383C79.7428 14.9857 79.2207 14.8594 78.5957 14.8594H77.0488V21.1406ZM86.377 22.125C85.7988 22.125 85.3001 21.9974 84.8809 21.7422C84.4642 21.4844 84.1426 21.125 83.916 20.6641C83.6921 20.2005 83.5801 19.6615 83.5801 19.0469C83.5801 18.4323 83.6921 17.8906 83.916 17.4219C84.1426 16.9505 84.4577 16.5833 84.8613 16.3203C85.2676 16.0547 85.7415 15.9219 86.2832 15.9219C86.5957 15.9219 86.9043 15.974 87.209 16.0781C87.5137 16.1823 87.791 16.3516 88.041 16.5859C88.291 16.8177 88.4902 17.125 88.6387 17.5078C88.7871 17.8906 88.8613 18.362 88.8613 18.9219V19.3125H84.2363V18.5156H87.9238C87.9238 18.1771 87.8561 17.875 87.7207 17.6094C87.5879 17.3437 87.3978 17.1341 87.1504 16.9805C86.9056 16.8268 86.6165 16.75 86.2832 16.75C85.916 16.75 85.5983 16.8411 85.3301 17.0234C85.0645 17.2031 84.86 17.4375 84.7168 17.7266C84.5736 18.0156 84.502 18.3255 84.502 18.6562V19.1875C84.502 19.6406 84.5801 20.0247 84.7363 20.3398C84.8952 20.6523 85.1152 20.8906 85.3965 21.0547C85.6777 21.2161 86.0046 21.2969 86.377 21.2969C86.6191 21.2969 86.8379 21.263 87.0332 21.1953C87.2311 21.125 87.4017 21.0208 87.5449 20.8828C87.6882 20.7422 87.7988 20.5677 87.877 20.3594L88.7676 20.6094C88.6738 20.9115 88.5163 21.1771 88.2949 21.4062C88.0736 21.6328 87.8001 21.8099 87.4746 21.9375C87.1491 22.0625 86.7832 22.125 86.377 22.125ZM94.5137 17.3437L93.6855 17.5781C93.6335 17.4401 93.5566 17.306 93.4551 17.1758C93.3561 17.043 93.2207 16.9336 93.0488 16.8477C92.877 16.7617 92.6569 16.7187 92.3887 16.7187C92.0215 16.7187 91.7155 16.8034 91.4707 16.9727C91.2285 17.1393 91.1074 17.3516 91.1074 17.6094C91.1074 17.8385 91.1908 18.0195 91.3574 18.1523C91.5241 18.2852 91.7845 18.3958 92.1387 18.4844L93.0293 18.7031C93.5658 18.8333 93.9655 19.0326 94.2285 19.3008C94.4915 19.5664 94.623 19.9089 94.623 20.3281C94.623 20.6719 94.5241 20.9792 94.3262 21.25C94.1309 21.5208 93.8574 21.7344 93.5059 21.8906C93.1543 22.0469 92.7454 22.125 92.2793 22.125C91.6673 22.125 91.1608 21.9922 90.7598 21.7266C90.3587 21.4609 90.1048 21.0729 89.998 20.5625L90.873 20.3437C90.9564 20.6667 91.1139 20.9089 91.3457 21.0703C91.5801 21.2318 91.8861 21.3125 92.2637 21.3125C92.6934 21.3125 93.0345 21.2214 93.2871 21.0391C93.5423 20.8542 93.6699 20.6328 93.6699 20.375C93.6699 20.1667 93.597 19.9922 93.4512 19.8516C93.3053 19.7083 93.0814 19.6016 92.7793 19.5312L91.7793 19.2969C91.2298 19.1667 90.8262 18.9648 90.5684 18.6914C90.3132 18.4154 90.1855 18.0703 90.1855 17.6562C90.1855 17.3177 90.2806 17.0182 90.4707 16.7578C90.6634 16.4974 90.9251 16.293 91.2559 16.1445C91.5892 15.9961 91.9668 15.9219 92.3887 15.9219C92.9824 15.9219 93.4486 16.0521 93.7871 16.3125C94.1283 16.5729 94.3704 16.9167 94.5137 17.3437ZM96.0107 22V16H96.9326V22H96.0107ZM96.4795 15C96.2998 15 96.1449 14.9388 96.0146 14.8164C95.887 14.694 95.8232 14.5469 95.8232 14.375C95.8232 14.2031 95.887 14.056 96.0146 13.9336C96.1449 13.8112 96.2998 13.75 96.4795 13.75C96.6592 13.75 96.8128 13.8112 96.9404 13.9336C97.0706 14.056 97.1357 14.2031 97.1357 14.375C97.1357 14.5469 97.0706 14.694 96.9404 14.8164C96.8128 14.9388 96.6592 15 96.4795 15ZM101.043 24.375C100.598 24.375 100.215 24.3177 99.8945 24.2031C99.5742 24.0911 99.3073 23.9427 99.0938 23.7578C98.8828 23.5755 98.7148 23.3802 98.5898 23.1719L99.3242 22.6563C99.4076 22.7656 99.513 22.8906 99.6406 23.0312C99.7682 23.1745 99.9427 23.2982 100.164 23.4023C100.388 23.5091 100.681 23.5625 101.043 23.5625C101.527 23.5625 101.927 23.4453 102.242 23.2109C102.557 22.9766 102.715 22.6094 102.715 22.1094V20.8906H102.637C102.569 21 102.473 21.1354 102.348 21.2969C102.225 21.4557 102.048 21.5977 101.816 21.7227C101.587 21.8451 101.277 21.9062 100.887 21.9062C100.402 21.9062 99.9674 21.7917 99.582 21.5625C99.1992 21.3333 98.8958 21 98.6719 20.5625C98.4505 20.125 98.3398 19.5937 98.3398 18.9687C98.3398 18.3542 98.4479 17.819 98.6641 17.3633C98.8802 16.9049 99.181 16.5508 99.5664 16.3008C99.9518 16.0482 100.397 15.9219 100.902 15.9219C101.293 15.9219 101.603 15.987 101.832 16.1172C102.064 16.2448 102.241 16.3906 102.363 16.5547C102.488 16.7161 102.585 16.849 102.652 16.9531H102.746V16H103.637V22.1719C103.637 22.6875 103.52 23.1068 103.285 23.4297C103.053 23.7552 102.741 23.9935 102.348 24.1445C101.957 24.2982 101.522 24.375 101.043 24.375ZM101.012 21.0781C101.382 21.0781 101.694 20.9935 101.949 20.8242C102.204 20.6549 102.398 20.4115 102.531 20.0938C102.664 19.776 102.73 19.3958 102.73 18.9531C102.73 18.5208 102.665 18.1393 102.535 17.8086C102.405 17.4779 102.212 17.2187 101.957 17.0312C101.702 16.8437 101.387 16.75 101.012 16.75C100.621 16.75 100.296 16.849 100.035 17.0469C99.7773 17.2448 99.5833 17.5104 99.4531 17.8438C99.3255 18.1771 99.2617 18.5469 99.2617 18.9531C99.2617 19.3698 99.3268 19.7383 99.457 20.0586C99.5898 20.3763 99.7852 20.6263 100.043 20.8086C100.303 20.9883 100.626 21.0781 101.012 21.0781ZM106.246 18.3906V22H105.324V16H106.215V16.9375H106.293C106.434 16.6328 106.647 16.388 106.934 16.2031C107.22 16.0156 107.59 15.9219 108.043 15.9219C108.449 15.9219 108.805 16.0052 109.109 16.1719C109.414 16.3359 109.651 16.5859 109.82 16.9219C109.99 17.2552 110.074 17.6771 110.074 18.1875V22H109.152V18.25C109.152 17.7786 109.03 17.4115 108.785 17.1484C108.54 16.8828 108.204 16.75 107.777 16.75C107.483 16.75 107.22 16.8138 106.988 16.9414C106.759 17.069 106.578 17.2552 106.445 17.5C106.313 17.7448 106.246 18.0417 106.246 18.3906Z" fill="black"/>
</svg>
